<svg id="Ebene_1" data-name="Ebene 1" xmlns="http://www.w3.org/2000/svg" viewBox="0 0 50.2 69.45"><defs><style>.cls-1{fill:red;}</style></defs><path class="cls-1" d="M33.88,7.1H82a2.51,2.51,0,0,0,1,4.8v1.93a2.52,2.52,0,1,0,0,5v1.93a2.51,2.51,0,1,0,0,5v1.94a2.51,2.51,0,1,0,0,5V34.7a2.52,2.52,0,1,0,0,5v1.93a2.51,2.51,0,1,0,0,5v1.94a2.51,2.51,0,1,0,0,5v1.93a2.52,2.52,0,1,0,0,5v1.93a2.52,2.52,0,1,0,0,5v1.93A2.51,2.51,0,0,0,80.53,72H79.29a2.52,2.52,0,0,0-5,0H73a2.52,2.52,0,0,0-5,0H66.73a2.51,2.51,0,1,0-5,0H60.46a2.52,2.52,0,0,0-5,0H54.18a2.52,2.52,0,0,0-5,0H47.91a2.52,2.52,0,0,0-5,0H41.63a2.52,2.52,0,0,0-5,0H35.35a2.53,2.53,0,0,0-.73-1.78,2.57,2.57,0,0,0-1.78-.73V67.56a2.52,2.52,0,0,0,0-5V60.6a2.52,2.52,0,0,0,0-5V53.64a2.51,2.51,0,0,0,0-5V46.68a2.51,2.51,0,0,0,0-5V39.73a2.52,2.52,0,0,0,0-5V32.77a2.51,2.51,0,0,0,0-5V25.81a2.51,2.51,0,0,0,0-5V18.86a2.52,2.52,0,0,0,0-5V11.9a2.51,2.51,0,0,0,1-4.8Z" transform="translate(-32.84 -2.55)"/><path class="cls-1" d="M39.12,5.07a2.52,2.52,0,0,0,2.51-2.52h1.25a2.52,2.52,0,1,0,5,0h1.24a2.52,2.52,0,1,0,5,0h1.25a2.52,2.52,0,1,0,5,0h1.25a2.51,2.51,0,1,0,5,0H68a2.52,2.52,0,1,0,5,0h1.25a2.52,2.52,0,1,0,5,0h1.24a2.53,2.53,0,0,0,2.52,2.52V7a2.52,2.52,0,1,0,0,5V14a2.52,2.52,0,1,0,0,5v.83H32.84V19a2.52,2.52,0,0,0,0-5V12a2.52,2.52,0,0,0,0-5V5.07a2.54,2.54,0,0,0,1.78-.74,2.49,2.49,0,0,0,.73-1.78H36.6A2.52,2.52,0,0,0,39.12,5.07Z" transform="translate(-32.84 -2.55)"/></svg>