<?xml version="1.0" encoding="utf-8"?>
<!-- Generator: Adobe Illustrator 25.2.0, SVG Export Plug-In . SVG Version: 6.00 Build 0)  -->
<svg version="1.1" id="Ebene_1" xmlns="http://www.w3.org/2000/svg" xmlns:xlink="http://www.w3.org/1999/xlink" x="0px" y="0px"
	 viewBox="0 0 366.4 203.4" style="enable-background:new 0 0 366.4 203.4;" xml:space="preserve">
<style type="text/css">
	.st0{fill:#FFE300;}
</style>
<g id="Ebene_2_1_">
	<g id="Ebene_1-2">
		<path class="st0" d="M366.4,193.2v-5c-5.6,0-10.2-4.6-10.2-10.2s4.6-10.2,10.2-10.2v-5.1c-5.6,0.2-10.3-4.2-10.5-9.9
			s4.2-10.3,9.9-10.5c0.2,0,0.4,0,0.6,0v-5.1c-5.6,0.2-10.3-4.2-10.5-9.9s4.2-10.3,9.9-10.5c0.2,0,0.4,0,0.6,0v-5
			c-5.6,0-10.2-4.6-10.2-10.2s4.6-10.2,10.2-10.2l0,0v-5c-5.6,0-10.2-4.6-10.2-10.2S360.8,66,366.4,66v-5
			c-5.6,0.2-10.3-4.2-10.5-9.9s4.2-10.3,9.9-10.5c0.2,0,0.4,0,0.6,0v-5c-5.6,0.2-10.3-4.2-10.5-9.9s4.2-10.3,9.9-10.5
			c0.2,0,0.4,0,0.6,0v-5.1c-2.7,0-5.3-1.1-7.2-3c-1.9-1.9-3-4.5-3-7.2h-7.8c0,5.6-4.6,10.2-10.2,10.2S328,5.5,328-0.1h-7.8
			c0,5.6-4.6,10.2-10.2,10.2S299.9,5.6,299.9,0H292c0,5.6-4.6,10.2-10.2,10.2l0,0c-5.6,0-10.2-4.6-10.2-10.2h-7.8
			c0,5.6-4.6,10.2-10.2,10.2c-5.6,0-10.2-4.6-10.2-10.2h-7.8c0,5.6-4.6,10.2-10.2,10.2S215.3,5.6,215.3,0h-7.8
			c0,5.6-4.6,10.2-10.2,10.2l0,0c-5.6,0-10.2-4.6-10.2-10.2h-7.8c0,5.6-4.6,10.2-10.2,10.2l0,0c-5.6,0-10.2-4.6-10.2-10.2l0,0h-7.8
			c0,5.6-4.6,10.2-10.2,10.2l0,0c-5.6,0-10.2-4.6-10.2-10.2h-7.8c0,5.6-4.6,10.2-10.2,10.2S102.5,5.6,102.5,0l0,0h-7.8
			c0,5.6-4.6,10.2-10.2,10.2S74.3,5.6,74.3,0h-7.8c0,5.6-4.6,10.2-10.2,10.2S46.1,5.6,46.1,0h-7.8c0,5.6-4.6,10.2-10.2,10.2
			C22.6,10.2,18,5.6,18,0l0,0h-7.8c0,2.7-1.1,5.3-3,7.2s-4.5,3-7.2,3v5.1c5.6,0,10.2,4.6,10.2,10.2l0,0c0,5.6-4.6,10.2-10.2,10.2
			v5.1c5.6,0,10.2,4.6,10.2,10.2c0,5.5-4.6,10-10.2,10v5.1c5.6,0,10.2,4.6,10.2,10.2S5.6,86.5,0,86.5v5c5.6,0,10.2,4.6,10.2,10.2
			S5.6,111.9,0,111.9v5c5.6,0,10.2,4.6,10.2,10.2l0,0c0,5.6-4.5,10.2-10.1,10.2l0,0v5.1c5.6,0,10.2,4.6,10.2,10.2
			c0,5.6-4.6,10.2-10.2,10.2l0,0v5.1c5.6,0,10.2,4.6,10.2,10.2S5.6,188.2,0,188.2v5c2.7,0,5.3,1.1,7.2,3s3,4.5,3,7.2H18
			c-0.2-5.6,4.2-10.3,9.9-10.5s10.3,4.2,10.5,9.9c0,0.2,0,0.4,0,0.6h7.8c0-5.6,4.6-10.2,10.2-10.2s10.2,4.6,10.2,10.2h7.8
			c0-5.6,4.6-10.2,10.2-10.2s10.2,4.6,10.2,10.2h7.8c-0.2-5.6,4.2-10.3,9.9-10.5s10.3,4.2,10.5,9.9c0,0.2,0,0.4,0,0.6h7.8
			c0-5.6,4.6-10.2,10.2-10.2s10.2,4.6,10.2,10.2l0,0h7.8c0-5.6,4.6-10.2,10.2-10.2s10.2,4.6,10.2,10.2l0,0h7.8
			c-0.2-5.6,4.2-10.3,9.9-10.5s10.3,4.2,10.5,9.9c0,0.2,0,0.4,0,0.6h7.8c0-5.6,4.6-10.2,10.2-10.2s10.2,4.6,10.2,10.2l0,0h7.8
			c0-5.6,4.6-10.2,10.2-10.2c5.6,0,10.2,4.6,10.2,10.2l0,0h7.8c-0.2-5.6,4.2-10.3,9.9-10.5s10.3,4.2,10.5,9.9c0,0.2,0,0.4,0,0.6h7.8
			c0-5.6,4.6-10.2,10.2-10.2s10.2,4.6,10.2,10.2l0,0h7.8c-0.2-5.6,4.2-10.3,9.9-10.5s10.3,4.2,10.5,9.9c0,0.2,0,0.4,0,0.6h7.8
			C356.2,197.8,360.8,193.2,366.4,193.2L366.4,193.2L366.4,193.2z"/>
	</g>
</g>
</svg>
