<svg xmlns="http://www.w3.org/2000/svg" viewBox="0 0 366.42 203.42"><g id="Ebene_2" data-name="Ebene 2"><g id="Ebene_1-2" data-name="Ebene 1"><path d="M366.42,193.23v-5a10.19,10.19,0,0,1,0-20.38v-5.05a10.19,10.19,0,1,1,0-20.37v-5.06a10.19,10.19,0,1,1,0-20.37v-5a10.19,10.19,0,1,1,0-20.38v-5a10.19,10.19,0,0,1,0-20.38V61a10.19,10.19,0,1,1,0-20.37V35.61a10.19,10.19,0,1,1,0-20.37V10.19a10.25,10.25,0,0,1-7.2-3,10.23,10.23,0,0,1-3-7.2h-7.81a10.19,10.19,0,0,1-10.18,10.19A10.19,10.19,0,0,1,328.05,0h-7.81a10.19,10.19,0,1,1-20.38,0h-7.81a10.19,10.19,0,0,1-10.19,10.19A10.19,10.19,0,0,1,271.68,0h-7.82a10.19,10.19,0,0,1-10.18,10.19A10.19,10.19,0,0,1,243.49,0h-7.81A10.19,10.19,0,0,1,215.3,0h-7.81A10.19,10.19,0,0,1,197.3,10.19,10.19,10.19,0,0,1,187.12,0h-7.81a10.19,10.19,0,0,1-10.19,10.19A10.19,10.19,0,0,1,158.93,0h-7.81a10.19,10.19,0,0,1-10.19,10.19A10.19,10.19,0,0,1,130.74,0h-7.81a10.19,10.19,0,0,1-10.18,10.19A10.19,10.19,0,0,1,102.56,0H94.75A10.19,10.19,0,0,1,74.37,0H66.56A10.19,10.19,0,0,1,56.37,10.19,10.19,10.19,0,0,1,46.18,0H38.37A10.19,10.19,0,0,1,28.19,10.19,10.19,10.19,0,0,1,18,0H10.19a10.23,10.23,0,0,1-3,7.2,10.23,10.23,0,0,1-7.2,3v5.05A10.19,10.19,0,0,1,10.19,25.43,10.19,10.19,0,0,1,0,35.61v5.06A10.19,10.19,0,0,1,10.19,50.85,10.19,10.19,0,0,1,0,61v5.05A10.19,10.19,0,0,1,0,86.47v5A10.19,10.19,0,0,1,0,111.9v5a10.19,10.19,0,0,1,10.19,10.19A10.19,10.19,0,0,1,0,137.32v5.06a10.19,10.19,0,0,1,10.19,10.18A10.19,10.19,0,0,1,0,162.75v5.05a10.19,10.19,0,0,1,0,20.38v5a10.26,10.26,0,0,1,7.2,3,10.26,10.26,0,0,1,3,7.21H18a10.19,10.19,0,1,1,20.37,0h7.81a10.19,10.19,0,0,1,20.38,0h7.81a10.19,10.19,0,0,1,20.38,0h7.81a10.19,10.19,0,1,1,20.37,0h7.81a10.19,10.19,0,0,1,20.38,0h7.81a10.19,10.19,0,1,1,20.38,0h7.81a10.19,10.19,0,1,1,20.37,0h7.81a10.19,10.19,0,1,1,20.38,0h7.81a10.19,10.19,0,1,1,20.38,0h7.81a10.19,10.19,0,1,1,20.37,0h7.81a10.19,10.19,0,0,1,20.38,0h7.81a10.19,10.19,0,1,1,20.37,0h7.81a10.19,10.19,0,0,1,10.19-10.19Z"/></g></g></svg>